<svg width="419" height="24" viewBox="0 0 419 24" fill="none" xmlns="http://www.w3.org/2000/svg">
<path d="M14.2222 6.66667V18.3333H1.77778V6.66667H14.2222ZM14.2222 5H1.77778C0.8 5 0 5.75 0 6.66667V18.3333C0 19.25 0.8 20 1.77778 20H14.2222C15.2 20 16 19.25 16 18.3333V6.66667C16 5.75 15.2 5 14.2222 5Z" fill="#212121"/>
<path d="M32.8115 12.3447C32.8115 13.32 32.6475 14.1722 32.3193 14.9014C31.9912 15.626 31.5264 16.1797 30.9248 16.5625C30.3232 16.9453 29.6214 17.1367 28.8193 17.1367C28.0355 17.1367 27.3405 16.9453 26.7344 16.5625C26.1283 16.1751 25.6566 15.626 25.3193 14.915C24.9867 14.1995 24.8158 13.3724 24.8066 12.4336V11.7158C24.8066 10.7588 24.973 9.91341 25.3057 9.17969C25.6383 8.44596 26.1077 7.88542 26.7139 7.49805C27.3245 7.10612 28.0218 6.91016 28.8057 6.91016C29.6032 6.91016 30.305 7.10384 30.9111 7.49121C31.5218 7.87402 31.9912 8.43229 32.3193 9.16602C32.6475 9.89518 32.8115 10.7451 32.8115 11.7158V12.3447ZM31.5059 11.7021C31.5059 10.5218 31.2689 9.61719 30.7949 8.98828C30.321 8.35482 29.6579 8.03809 28.8057 8.03809C27.9762 8.03809 27.3223 8.35482 26.8438 8.98828C26.3698 9.61719 26.126 10.4922 26.1123 11.6133V12.3447C26.1123 13.4886 26.3516 14.3887 26.8301 15.0449C27.3132 15.6966 27.9762 16.0225 28.8193 16.0225C29.667 16.0225 30.3232 15.7148 30.7881 15.0996C31.2529 14.4798 31.4922 13.5934 31.5059 12.4404V11.7021ZM39.3087 15.0381C39.3087 14.6963 39.1788 14.432 38.919 14.2451C38.6638 14.0537 38.2149 13.8896 37.5723 13.7529C36.9343 13.6162 36.4262 13.4521 36.0479 13.2607C35.6742 13.0693 35.3962 12.8415 35.2139 12.5771C35.0362 12.3128 34.9473 11.9984 34.9473 11.6338C34.9473 11.0277 35.2026 10.515 35.713 10.0957C36.2279 9.67643 36.8842 9.4668 37.6817 9.4668C38.5203 9.4668 39.1993 9.68327 39.7188 10.1162C40.2429 10.5492 40.505 11.1029 40.505 11.7773H39.2335C39.2335 11.431 39.0854 11.1325 38.7891 10.8818C38.4975 10.6312 38.1283 10.5059 37.6817 10.5059C37.2214 10.5059 36.8614 10.6061 36.6016 10.8066C36.3419 11.0072 36.212 11.2692 36.212 11.5928C36.212 11.8981 36.3328 12.1283 36.5743 12.2832C36.8158 12.4382 37.2511 12.5863 37.88 12.7275C38.5134 12.8688 39.0261 13.0374 39.418 13.2334C39.81 13.4294 40.0994 13.6663 40.2862 13.9443C40.4776 14.2178 40.5733 14.5527 40.5733 14.9492C40.5733 15.61 40.309 16.141 39.7804 16.542C39.2517 16.9385 38.5658 17.1367 37.7227 17.1367C37.1303 17.1367 36.6062 17.0319 36.1505 16.8223C35.6947 16.6126 35.337 16.321 35.0772 15.9473C34.822 15.569 34.6944 15.1611 34.6944 14.7236H35.9591C35.9818 15.1475 36.1505 15.4847 36.4649 15.7354C36.7839 15.9814 37.2032 16.1045 37.7227 16.1045C38.2013 16.1045 38.5841 16.0088 38.8712 15.8174C39.1628 15.6214 39.3087 15.3617 39.3087 15.0381ZM38.5089 6.5H40.0401L38.2081 8.50977H37.1895L38.5089 6.5ZM49.1896 15.2568L50.6115 9.60352H51.8761L49.7228 17H48.6974L46.8996 11.3945L45.1496 17H44.1242L41.9777 9.60352H43.2355L44.6916 15.1406L46.4142 9.60352H47.4328L49.1896 15.2568ZM54.9621 17H53.6975V9.60352H54.9621V17ZM53.595 7.6416C53.595 7.43652 53.6565 7.26335 53.7795 7.12207C53.9071 6.98079 54.094 6.91016 54.3401 6.91016C54.5862 6.91016 54.773 6.98079 54.9006 7.12207C55.0282 7.26335 55.092 7.43652 55.092 7.6416C55.092 7.84668 55.0282 8.01758 54.9006 8.1543C54.773 8.29102 54.5862 8.35938 54.3401 8.35938C54.094 8.35938 53.9071 8.29102 53.7795 8.1543C53.6565 8.01758 53.595 7.84668 53.595 7.6416ZM61.9788 17C61.9059 16.8542 61.8467 16.5944 61.8011 16.2207C61.2132 16.8314 60.5114 17.1367 59.6956 17.1367C58.9665 17.1367 58.3672 16.9316 57.8978 16.5215C57.4329 16.1068 57.2005 15.5827 57.2005 14.9492C57.2005 14.179 57.4922 13.582 58.0755 13.1582C58.6634 12.7298 59.4883 12.5156 60.5501 12.5156H61.7806V11.9346C61.7806 11.4925 61.6484 11.1416 61.3841 10.8818C61.1198 10.6175 60.7301 10.4854 60.2152 10.4854C59.764 10.4854 59.3857 10.5993 59.0804 10.8271C58.7751 11.055 58.6224 11.3307 58.6224 11.6543H57.3509C57.3509 11.2852 57.4808 10.9297 57.7405 10.5879C58.0049 10.2415 58.3603 9.9681 58.807 9.76758C59.2581 9.56706 59.7526 9.4668 60.2904 9.4668C61.1426 9.4668 61.8102 9.68099 62.2933 10.1094C62.7764 10.5332 63.027 11.1188 63.0452 11.8662V15.2705C63.0452 15.9495 63.1318 16.4896 63.305 16.8906V17H61.9788ZM59.8802 16.0361C60.2767 16.0361 60.6527 15.9336 61.0081 15.7285C61.3636 15.5234 61.6211 15.2568 61.7806 14.9287V13.4111H60.7894C59.2399 13.4111 58.4652 13.8646 58.4652 14.7715C58.4652 15.168 58.5973 15.4779 58.8616 15.7012C59.126 15.9245 59.4655 16.0361 59.8802 16.0361ZM65.14 13.2402C65.14 12.1055 65.4089 11.194 65.9467 10.5059C66.4844 9.81315 67.1885 9.4668 68.059 9.4668C68.9249 9.4668 69.6107 9.76302 70.1166 10.3555V6.5H71.3812V17H70.2191L70.1576 16.207C69.6518 16.8268 68.9477 17.1367 68.0453 17.1367C67.1885 17.1367 66.489 16.7858 65.9467 16.084C65.4089 15.3822 65.14 14.4661 65.14 13.3359V13.2402ZM66.4047 13.3838C66.4047 14.2223 66.5779 14.8786 66.9242 15.3525C67.2706 15.8265 67.7491 16.0635 68.3598 16.0635C69.1618 16.0635 69.7475 15.7035 70.1166 14.9834V11.5859C69.7383 10.8887 69.1573 10.54 68.3734 10.54C67.7536 10.54 67.2706 10.7793 66.9242 11.2578C66.5779 11.7363 66.4047 12.445 66.4047 13.3838ZM76.7368 16.1045C77.188 16.1045 77.5822 15.9678 77.9194 15.6943C78.2567 15.4209 78.4435 15.0791 78.48 14.6689H79.6763C79.6535 15.0928 79.5076 15.4961 79.2388 15.8789C78.9699 16.2617 78.6098 16.5671 78.1587 16.7949C77.7121 17.0228 77.2381 17.1367 76.7368 17.1367C75.7296 17.1367 74.9276 16.8018 74.3305 16.1318C73.7381 15.4574 73.4419 14.5368 73.4419 13.3701V13.1582C73.4419 12.4382 73.574 11.7979 73.8384 11.2373C74.1027 10.6768 74.4809 10.2415 74.9731 9.93164C75.4699 9.62174 76.0555 9.4668 76.73 9.4668C77.5594 9.4668 78.2475 9.71517 78.7944 10.2119C79.3458 10.7087 79.6398 11.3535 79.6763 12.1465H78.48C78.4435 11.668 78.2612 11.276 77.9331 10.9707C77.6095 10.6608 77.2085 10.5059 76.73 10.5059C76.0874 10.5059 75.5884 10.7383 75.2329 11.2031C74.882 11.6634 74.7065 12.3311 74.7065 13.2061V13.4453C74.7065 14.2975 74.882 14.9538 75.2329 15.4141C75.5838 15.8743 76.0851 16.1045 76.7368 16.1045ZM82.7076 15.9678H87.0347V17H81.1627V16.0703L85.2437 10.6494H81.2242V9.60352H86.8296V10.499L82.7076 15.9678ZM93.4498 17C93.3769 16.8542 93.3177 16.5944 93.2721 16.2207C92.6842 16.8314 91.9824 17.1367 91.1666 17.1367C90.4375 17.1367 89.8382 16.9316 89.3688 16.5215C88.9039 16.1068 88.6715 15.5827 88.6715 14.9492C88.6715 14.179 88.9632 13.582 89.5465 13.1582C90.1344 12.7298 90.9593 12.5156 92.0211 12.5156H93.2516V11.9346C93.2516 11.4925 93.1194 11.1416 92.8551 10.8818C92.5908 10.6175 92.2011 10.4854 91.6862 10.4854C91.235 10.4854 90.8567 10.5993 90.5514 10.8271C90.2461 11.055 90.0934 11.3307 90.0934 11.6543H88.8219C88.8219 11.2852 88.9518 10.9297 89.2116 10.5879C89.4759 10.2415 89.8314 9.9681 90.278 9.76758C90.7291 9.56706 91.2236 9.4668 91.7614 9.4668C92.6136 9.4668 93.2812 9.68099 93.7643 10.1094C94.2474 10.5332 94.498 11.1188 94.5163 11.8662V15.2705C94.5163 15.9495 94.6028 16.4896 94.776 16.8906V17H93.4498ZM91.3512 16.0361C91.7477 16.0361 92.1237 15.9336 92.4791 15.7285C92.8346 15.5234 93.0921 15.2568 93.2516 14.9287V13.4111H92.2604C90.7109 13.4111 89.9362 13.8646 89.9362 14.7715C89.9362 15.168 90.0683 15.4779 90.3327 15.7012C90.597 15.9245 90.9365 16.0361 91.3512 16.0361ZM98.1081 9.60352L98.1423 10.4238C98.6846 9.78581 99.4161 9.4668 100.337 9.4668C101.371 9.4668 102.075 9.86328 102.449 10.6562C102.695 10.3008 103.014 10.0137 103.406 9.79492C103.802 9.57617 104.27 9.4668 104.807 9.4668C106.43 9.4668 107.255 10.3258 107.282 12.0439V17H106.017V12.1191C106.017 11.5905 105.897 11.1963 105.655 10.9365C105.413 10.6722 105.008 10.54 104.438 10.54C103.969 10.54 103.579 10.6813 103.269 10.9639C102.959 11.2419 102.779 11.6178 102.729 12.0918V17H101.458V12.1533C101.458 11.0778 100.931 10.54 99.8786 10.54C99.0492 10.54 98.4818 10.8932 98.1765 11.5996V17H96.9118V9.60352H98.1081ZM114.883 17H113.618V9.60352H114.883V17ZM113.516 7.6416C113.516 7.43652 113.577 7.26335 113.7 7.12207C113.828 6.98079 114.015 6.91016 114.261 6.91016C114.507 6.91016 114.694 6.98079 114.821 7.12207C114.949 7.26335 115.013 7.43652 115.013 7.6416C115.013 7.84668 114.949 8.01758 114.821 8.1543C114.694 8.29102 114.507 8.35938 114.261 8.35938C114.015 8.35938 113.828 8.29102 113.7 8.1543C113.577 8.01758 113.516 7.84668 113.516 7.6416ZM118.522 15.9678H122.85V17H116.978V16.0703L121.059 10.6494H117.039V9.60352H122.644V10.499L118.522 15.9678ZM119.144 7.65527C119.144 7.4502 119.206 7.27702 119.329 7.13574C119.457 6.99447 119.644 6.92383 119.89 6.92383C120.136 6.92383 120.323 6.99447 120.45 7.13574C120.578 7.27702 120.642 7.4502 120.642 7.65527C120.642 7.86035 120.578 8.03125 120.45 8.16797C120.323 8.30469 120.136 8.37305 119.89 8.37305C119.644 8.37305 119.457 8.30469 119.329 8.16797C119.206 8.03125 119.144 7.86035 119.144 7.65527ZM133.157 17C133.084 16.8542 133.025 16.5944 132.98 16.2207C132.392 16.8314 131.69 17.1367 130.874 17.1367C130.145 17.1367 129.546 16.9316 129.076 16.5215C128.611 16.1068 128.379 15.5827 128.379 14.9492C128.379 14.179 128.671 13.582 129.254 13.1582C129.842 12.7298 130.667 12.5156 131.729 12.5156H132.959V11.9346C132.959 11.4925 132.827 11.1416 132.563 10.8818C132.298 10.6175 131.909 10.4854 131.394 10.4854C130.942 10.4854 130.564 10.5993 130.259 10.8271C129.954 11.055 129.801 11.3307 129.801 11.6543H128.529C128.529 11.2852 128.659 10.9297 128.919 10.5879C129.183 10.2415 129.539 9.9681 129.985 9.76758C130.437 9.56706 130.931 9.4668 131.469 9.4668C132.321 9.4668 132.989 9.68099 133.472 10.1094C133.955 10.5332 134.206 11.1188 134.224 11.8662V15.2705C134.224 15.9495 134.31 16.4896 134.484 16.8906V17H133.157ZM131.059 16.0361C131.455 16.0361 131.831 15.9336 132.187 15.7285C132.542 15.5234 132.8 15.2568 132.959 14.9287V13.4111H131.968C130.418 13.4111 129.644 13.8646 129.644 14.7715C129.644 15.168 129.776 15.4779 130.04 15.7012C130.304 15.9245 130.644 16.0361 131.059 16.0361ZM138.691 13.5752L137.898 14.4023V17H136.633V6.5H137.898V12.8506L138.574 12.0371L140.878 9.60352H142.416L139.538 12.6934L142.751 17H141.268L138.691 13.5752ZM146.972 16.1045C147.423 16.1045 147.817 15.9678 148.155 15.6943C148.492 15.4209 148.679 15.0791 148.715 14.6689H149.911C149.889 15.0928 149.743 15.4961 149.474 15.8789C149.205 16.2617 148.845 16.5671 148.394 16.7949C147.947 17.0228 147.473 17.1367 146.972 17.1367C145.965 17.1367 145.163 16.8018 144.566 16.1318C143.973 15.4574 143.677 14.5368 143.677 13.3701V13.1582C143.677 12.4382 143.809 11.7979 144.074 11.2373C144.338 10.6768 144.716 10.2415 145.208 9.93164C145.705 9.62174 146.291 9.4668 146.965 9.4668C147.795 9.4668 148.483 9.71517 149.03 10.2119C149.581 10.7087 149.875 11.3535 149.911 12.1465H148.715C148.679 11.668 148.496 11.276 148.168 10.9707C147.845 10.6608 147.444 10.5059 146.965 10.5059C146.323 10.5059 145.824 10.7383 145.468 11.2031C145.117 11.6634 144.942 12.3311 144.942 13.2061V13.4453C144.942 14.2975 145.117 14.9538 145.468 15.4141C145.819 15.8743 146.32 16.1045 146.972 16.1045ZM154.823 17.1367C153.82 17.1367 153.004 16.8086 152.375 16.1523C151.746 15.4915 151.432 14.6097 151.432 13.5068V13.2744C151.432 12.5407 151.571 11.8867 151.849 11.3125C152.132 10.7337 152.523 10.2826 153.025 9.95898C153.531 9.63086 154.077 9.4668 154.665 9.4668C155.627 9.4668 156.374 9.78353 156.908 10.417C157.441 11.0505 157.707 11.9574 157.707 13.1377V13.6641H152.697C152.715 14.3932 152.927 14.9834 153.332 15.4346C153.743 15.8812 154.262 16.1045 154.891 16.1045C155.338 16.1045 155.716 16.0133 156.026 15.8311C156.336 15.6488 156.607 15.4072 156.839 15.1064L157.612 15.708C156.992 16.6605 156.062 17.1367 154.823 17.1367ZM154.665 10.5059C154.155 10.5059 153.727 10.6927 153.38 11.0664C153.034 11.4355 152.82 11.9551 152.738 12.625H156.443V12.5293C156.406 11.8867 156.233 11.39 155.923 11.0391C155.613 10.6836 155.194 10.5059 154.665 10.5059ZM165.845 13.3838C165.845 14.5094 165.588 15.4163 165.073 16.1045C164.558 16.7926 163.86 17.1367 162.981 17.1367C162.083 17.1367 161.377 16.8519 160.862 16.2822V19.8438H159.597V9.60352H160.752L160.814 10.4238C161.329 9.78581 162.044 9.4668 162.96 9.4668C163.849 9.4668 164.551 9.80176 165.066 10.4717C165.585 11.1416 165.845 12.0736 165.845 13.2676V13.3838ZM164.581 13.2402C164.581 12.4062 164.403 11.7477 164.047 11.2646C163.692 10.7816 163.204 10.54 162.584 10.54C161.819 10.54 161.245 10.8796 160.862 11.5586V15.0928C161.24 15.7673 161.819 16.1045 162.598 16.1045C163.204 16.1045 163.685 15.8652 164.04 15.3867C164.4 14.9036 164.581 14.1882 164.581 13.2402ZM169.594 7.8125V9.60352H170.975V10.5811H169.594V15.168C169.594 15.4642 169.656 15.6875 169.779 15.8379C169.902 15.9837 170.112 16.0566 170.408 16.0566C170.554 16.0566 170.754 16.0293 171.009 15.9746V17C170.677 17.0911 170.353 17.1367 170.039 17.1367C169.473 17.1367 169.047 16.9658 168.76 16.624C168.473 16.2822 168.33 15.7969 168.33 15.168V10.5811H166.983V9.60352H168.33V7.8125H169.594ZM177.445 16.2686C176.953 16.8473 176.23 17.1367 175.278 17.1367C174.49 17.1367 173.888 16.9089 173.473 16.4531C173.063 15.9928 172.856 15.3138 172.851 14.416V9.60352H174.116V14.3818C174.116 15.5029 174.572 16.0635 175.483 16.0635C176.449 16.0635 177.092 15.7035 177.411 14.9834V9.60352H178.675V17H177.472L177.445 16.2686ZM182.329 9.60352V17.8545C182.329 19.2764 181.684 19.9873 180.394 19.9873C180.116 19.9873 179.859 19.9463 179.622 19.8643V18.8525C179.768 18.889 179.959 18.9072 180.196 18.9072C180.479 18.9072 180.693 18.8298 180.839 18.6748C180.989 18.5244 181.064 18.2601 181.064 17.8818V9.60352H182.329ZM180.934 7.6416C180.934 7.44108 180.996 7.27018 181.119 7.12891C181.246 6.98307 181.431 6.91016 181.673 6.91016C181.919 6.91016 182.105 6.98079 182.233 7.12207C182.361 7.26335 182.424 7.43652 182.424 7.6416C182.424 7.84668 182.361 8.01758 182.233 8.1543C182.105 8.29102 181.919 8.35938 181.673 8.35938C181.426 8.35938 181.242 8.29102 181.119 8.1543C180.996 8.01758 180.934 7.84668 180.934 7.6416ZM190.651 15.708C190.328 16.2093 189.904 16.583 189.38 16.8291H189.386L188.99 17.1367C188.475 17.5514 188.218 17.9548 188.218 18.3467C188.218 18.6748 188.395 18.8389 188.751 18.8389C188.969 18.8389 189.197 18.7796 189.434 18.6611L189.523 19.4883C189.204 19.6888 188.84 19.7891 188.429 19.7891C188.024 19.7891 187.703 19.6706 187.466 19.4336C187.233 19.1966 187.117 18.8822 187.117 18.4902C187.117 17.998 187.34 17.5469 187.787 17.1367C186.793 17.1185 185.991 16.7812 185.381 16.125C184.775 15.4642 184.471 14.5892 184.471 13.5V13.2744C184.471 12.5407 184.61 11.8867 184.888 11.3125C185.171 10.7337 185.563 10.2826 186.064 9.95898C186.57 9.63086 187.117 9.4668 187.705 9.4668C188.666 9.4668 189.414 9.78353 189.947 10.417C190.48 11.0505 190.747 11.9574 190.747 13.1377V13.6641H185.736C185.754 14.3932 185.966 14.9834 186.372 15.4346C186.782 15.8812 187.302 16.1045 187.93 16.1045C188.377 16.1045 188.755 16.0133 189.065 15.8311C189.375 15.6488 189.646 15.4072 189.879 15.1064L190.651 15.708ZM187.705 10.5059C187.194 10.5059 186.766 10.6927 186.42 11.0664C186.073 11.4355 185.859 11.9551 185.777 12.625H189.482V12.5293C189.446 11.8867 189.273 11.39 188.963 11.0391C188.653 10.6836 188.233 10.5059 187.705 10.5059ZM271.638 17H270.374V9.60352H271.638V17ZM270.271 7.6416C270.271 7.43652 270.333 7.26335 270.456 7.12207C270.583 6.98079 270.77 6.91016 271.016 6.91016C271.262 6.91016 271.449 6.98079 271.577 7.12207C271.704 7.26335 271.768 7.43652 271.768 7.6416C271.768 7.84668 271.704 8.01758 271.577 8.1543C271.449 8.29102 271.262 8.35938 271.016 8.35938C270.77 8.35938 270.583 8.29102 270.456 8.1543C270.333 8.01758 270.271 7.84668 270.271 7.6416Z" fill="#757575"/>
<path d="M200.378 12.9736H198.04V17H196.721V7.04688H200.016C201.137 7.04688 201.998 7.30208 202.6 7.8125C203.206 8.32292 203.509 9.06576 203.509 10.041C203.509 10.6608 203.34 11.2008 203.003 11.6611C202.67 12.1214 202.205 12.4655 201.608 12.6934L203.946 16.918V17H202.538L200.378 12.9736ZM198.04 11.9004H200.057C200.708 11.9004 201.226 11.7318 201.608 11.3945C201.996 11.0573 202.189 10.6061 202.189 10.041C202.189 9.42578 202.005 8.9541 201.636 8.62598C201.271 8.29785 200.742 8.13151 200.05 8.12695H198.04V11.9004ZM208.646 17.1367C207.643 17.1367 206.827 16.8086 206.198 16.1523C205.569 15.4915 205.255 14.6097 205.255 13.5068V13.2744C205.255 12.5407 205.394 11.8867 205.672 11.3125C205.954 10.7337 206.346 10.2826 206.848 9.95898C207.354 9.63086 207.9 9.4668 208.488 9.4668C209.45 9.4668 210.197 9.78353 210.73 10.417C211.264 11.0505 211.53 11.9574 211.53 13.1377V13.6641H206.52C206.538 14.3932 206.75 14.9834 207.155 15.4346C207.565 15.8812 208.085 16.1045 208.714 16.1045C209.16 16.1045 209.539 16.0133 209.849 15.8311C210.159 15.6488 210.43 15.4072 210.662 15.1064L211.435 15.708C210.815 16.6605 209.885 17.1367 208.646 17.1367ZM208.488 10.5059C207.978 10.5059 207.549 10.6927 207.203 11.0664C206.857 11.4355 206.643 11.9551 206.561 12.625H210.266V12.5293C210.229 11.8867 210.056 11.39 209.746 11.0391C209.436 10.6836 209.017 10.5059 208.488 10.5059ZM213.119 13.2402C213.119 12.0872 213.386 11.1712 213.919 10.4922C214.452 9.80859 215.159 9.4668 216.038 9.4668C216.941 9.4668 217.645 9.78581 218.15 10.4238L218.212 9.60352H219.367V16.8223C219.367 17.7793 219.082 18.5335 218.513 19.085C217.948 19.6364 217.187 19.9121 216.23 19.9121C215.696 19.9121 215.175 19.7982 214.664 19.5703C214.154 19.3424 213.764 19.0303 213.495 18.6338L214.151 17.875C214.694 18.5449 215.357 18.8799 216.141 18.8799C216.756 18.8799 217.234 18.7067 217.576 18.3604C217.923 18.014 218.096 17.5264 218.096 16.8975V16.2617C217.59 16.8451 216.899 17.1367 216.024 17.1367C215.159 17.1367 214.457 16.7881 213.919 16.0908C213.386 15.3936 213.119 14.4434 213.119 13.2402ZM214.391 13.3838C214.391 14.2178 214.562 14.874 214.903 15.3525C215.245 15.8265 215.724 16.0635 216.339 16.0635C217.136 16.0635 217.722 15.7012 218.096 14.9766V11.5996C217.708 10.8932 217.127 10.54 216.353 10.54C215.737 10.54 215.257 10.7793 214.91 11.2578C214.564 11.7363 214.391 12.445 214.391 13.3838ZM226.268 16.2686C225.776 16.8473 225.053 17.1367 224.101 17.1367C223.312 17.1367 222.711 16.9089 222.296 16.4531C221.886 15.9928 221.679 15.3138 221.674 14.416V9.60352H222.939V14.3818C222.939 15.5029 223.394 16.0635 224.306 16.0635C225.272 16.0635 225.915 15.7035 226.234 14.9834V9.60352H227.498V17H226.295L226.268 16.2686ZM231.22 17H229.955V6.5H231.22V17ZM238.237 17C238.164 16.8542 238.104 16.5944 238.059 16.2207C237.471 16.8314 236.769 17.1367 235.953 17.1367C235.224 17.1367 234.625 16.9316 234.156 16.5215C233.691 16.1068 233.458 15.5827 233.458 14.9492C233.458 14.179 233.75 13.582 234.333 13.1582C234.921 12.7298 235.746 12.5156 236.808 12.5156H238.038V11.9346C238.038 11.4925 237.906 11.1416 237.642 10.8818C237.378 10.6175 236.988 10.4854 236.473 10.4854C236.022 10.4854 235.644 10.5993 235.338 10.8271C235.033 11.055 234.88 11.3307 234.88 11.6543H233.609C233.609 11.2852 233.739 10.9297 233.998 10.5879C234.263 10.2415 234.618 9.9681 235.065 9.76758C235.516 9.56706 236.01 9.4668 236.548 9.4668C237.4 9.4668 238.068 9.68099 238.551 10.1094C239.034 10.5332 239.285 11.1188 239.303 11.8662V15.2705C239.303 15.9495 239.39 16.4896 239.563 16.8906V17H238.237ZM236.138 16.0361C236.534 16.0361 236.91 15.9336 237.266 15.7285C237.621 15.5234 237.879 15.2568 238.038 14.9287V13.4111H237.047C235.498 13.4111 234.723 13.8646 234.723 14.7715C234.723 15.168 234.855 15.4779 235.119 15.7012C235.384 15.9245 235.723 16.0361 236.138 16.0361ZM242.895 9.60352L242.929 10.4238C243.471 9.78581 244.203 9.4668 245.123 9.4668C246.158 9.4668 246.862 9.86328 247.236 10.6562C247.482 10.3008 247.801 10.0137 248.193 9.79492C248.589 9.57617 249.056 9.4668 249.594 9.4668C251.217 9.4668 252.041 10.3258 252.069 12.0439V17H250.804V12.1191C250.804 11.5905 250.683 11.1963 250.442 10.9365C250.2 10.6722 249.795 10.54 249.225 10.54C248.756 10.54 248.366 10.6813 248.056 10.9639C247.746 11.2419 247.566 11.6178 247.516 12.0918V17H246.245V12.1533C246.245 11.0778 245.718 10.54 244.665 10.54C243.836 10.54 243.269 10.8932 242.963 11.5996V17H241.699V9.60352H242.895ZM255.777 17H254.512V9.60352H255.777V17ZM254.41 7.6416C254.41 7.43652 254.471 7.26335 254.594 7.12207C254.722 6.98079 254.909 6.91016 255.155 6.91016C255.401 6.91016 255.588 6.98079 255.715 7.12207C255.843 7.26335 255.907 7.43652 255.907 7.6416C255.907 7.84668 255.843 8.01758 255.715 8.1543C255.588 8.29102 255.401 8.35938 255.155 8.35938C254.909 8.35938 254.722 8.29102 254.594 8.1543C254.471 8.01758 254.41 7.84668 254.41 7.6416ZM259.423 9.60352L259.464 10.5332C260.03 9.82227 260.768 9.4668 261.679 9.4668C263.242 9.4668 264.031 10.3486 264.044 12.1123V17H262.78V12.1055C262.775 11.5723 262.652 11.1781 262.411 10.9229C262.174 10.6676 261.802 10.54 261.296 10.54C260.886 10.54 260.526 10.6494 260.216 10.8682C259.906 11.0869 259.665 11.374 259.492 11.7295V17H258.227V9.60352H259.423ZM279.492 13.1035V17H278.18V7.04688H281.85C282.94 7.04688 283.792 7.32487 284.407 7.88086C285.027 8.43685 285.337 9.17285 285.337 10.0889C285.337 11.055 285.034 11.8001 284.428 12.3242C283.826 12.8438 282.962 13.1035 281.837 13.1035H279.492ZM279.492 12.0303H281.85C282.552 12.0303 283.09 11.8662 283.464 11.5381C283.837 11.2054 284.024 10.7269 284.024 10.1025C284.024 9.51009 283.837 9.03613 283.464 8.68066C283.09 8.3252 282.577 8.14062 281.926 8.12695H279.492V12.0303ZM286.803 13.2334C286.803 12.5088 286.944 11.8571 287.227 11.2783C287.514 10.6995 287.91 10.2529 288.416 9.93848C288.926 9.62402 289.507 9.4668 290.159 9.4668C291.166 9.4668 291.98 9.81543 292.6 10.5127C293.224 11.21 293.536 12.1374 293.536 13.2949V13.3838C293.536 14.1038 293.397 14.751 293.119 15.3252C292.846 15.8949 292.451 16.3392 291.936 16.6582C291.426 16.9772 290.838 17.1367 290.173 17.1367C289.17 17.1367 288.357 16.7881 287.732 16.0908C287.113 15.3936 286.803 14.4707 286.803 13.3223V13.2334ZM288.074 13.3838C288.074 14.2041 288.263 14.8626 288.642 15.3594C289.024 15.8561 289.535 16.1045 290.173 16.1045C290.815 16.1045 291.326 15.8538 291.704 15.3525C292.082 14.8467 292.271 14.1403 292.271 13.2334C292.271 12.4222 292.078 11.766 291.69 11.2646C291.308 10.7588 290.797 10.5059 290.159 10.5059C289.535 10.5059 289.031 10.7542 288.648 11.251C288.266 11.7477 288.074 12.4587 288.074 13.3838ZM296.916 17H295.651V6.5H296.916V17ZM300.74 17H299.476V9.60352H300.74V17ZM299.373 7.6416C299.373 7.43652 299.435 7.26335 299.558 7.12207C299.685 6.98079 299.872 6.91016 300.118 6.91016C300.364 6.91016 300.551 6.98079 300.679 7.12207C300.806 7.26335 300.87 7.43652 300.87 7.6416C300.87 7.84668 300.806 8.01758 300.679 8.1543C300.551 8.29102 300.364 8.35938 300.118 8.35938C299.872 8.35938 299.685 8.29102 299.558 8.1543C299.435 8.01758 299.373 7.84668 299.373 7.6416ZM304.906 7.8125V9.60352H306.287V10.5811H304.906V15.168C304.906 15.4642 304.968 15.6875 305.091 15.8379C305.214 15.9837 305.424 16.0566 305.72 16.0566C305.866 16.0566 306.066 16.0293 306.321 15.9746V17C305.989 17.0911 305.665 17.1367 305.351 17.1367C304.786 17.1367 304.36 16.9658 304.072 16.624C303.785 16.2822 303.642 15.7969 303.642 15.168V10.5811H302.295V9.60352H303.642V7.8125H304.906ZM310.611 15.1475L312.333 9.60352H313.687L310.713 18.1416C310.253 19.3721 309.521 19.9873 308.519 19.9873L308.28 19.9668L307.808 19.8779V18.8525L308.15 18.8799C308.578 18.8799 308.911 18.7933 309.148 18.6201C309.389 18.4469 309.588 18.1302 309.742 17.6699L310.023 16.918L307.384 9.60352H308.765L310.611 15.1475ZM317.306 13.5752L316.513 14.4023V17H315.248V6.5H316.513V12.8506L317.19 12.0371L319.494 9.60352H321.032L318.154 12.6934L321.367 17H319.883L317.306 13.5752ZM328.479 15.708C328.155 16.2093 327.732 16.583 327.207 16.8291H327.214L326.818 17.1367C326.303 17.5514 326.045 17.9548 326.045 18.3467C326.045 18.6748 326.223 18.8389 326.579 18.8389C326.797 18.8389 327.025 18.7796 327.262 18.6611L327.351 19.4883C327.032 19.6888 326.667 19.7891 326.257 19.7891C325.852 19.7891 325.53 19.6706 325.293 19.4336C325.061 19.1966 324.945 18.8822 324.945 18.4902C324.945 17.998 325.168 17.5469 325.615 17.1367C324.621 17.1185 323.819 16.7812 323.208 16.125C322.602 15.4642 322.299 14.5892 322.299 13.5V13.2744C322.299 12.5407 322.438 11.8867 322.716 11.3125C322.999 10.7337 323.391 10.2826 323.892 9.95898C324.398 9.63086 324.945 9.4668 325.533 9.4668C326.494 9.4668 327.242 9.78353 327.775 10.417C328.308 11.0505 328.575 11.9574 328.575 13.1377V13.6641H323.564C323.582 14.3932 323.794 14.9834 324.2 15.4346C324.61 15.8812 325.129 16.1045 325.758 16.1045C326.205 16.1045 326.583 16.0133 326.893 15.8311C327.203 15.6488 327.474 15.4072 327.706 15.1064L328.479 15.708ZM325.533 10.5059C325.022 10.5059 324.594 10.6927 324.247 11.0664C323.901 11.4355 323.687 11.9551 323.605 12.625H327.31V12.5293C327.274 11.8867 327.1 11.39 326.79 11.0391C326.481 10.6836 326.061 10.5059 325.533 10.5059ZM335.868 13.1035V17H334.555V7.04688H338.226C339.315 7.04688 340.168 7.32487 340.783 7.88086C341.403 8.43685 341.712 9.17285 341.712 10.0889C341.712 11.055 341.409 11.8001 340.803 12.3242C340.202 12.8438 339.338 13.1035 338.212 13.1035H335.868ZM335.868 12.0303H338.226C338.928 12.0303 339.466 11.8662 339.839 11.5381C340.213 11.2054 340.4 10.7269 340.4 10.1025C340.4 9.51009 340.213 9.03613 339.839 8.68066C339.466 8.3252 338.953 8.14062 338.301 8.12695H335.868V12.0303ZM347.184 10.7383C346.993 10.7064 346.786 10.6904 346.562 10.6904C345.733 10.6904 345.17 11.0436 344.874 11.75V17H343.609V9.60352H344.84L344.86 10.458C345.275 9.7972 345.863 9.4668 346.624 9.4668C346.87 9.4668 347.057 9.4987 347.184 9.5625V10.7383ZM351.316 15.1475L353.039 9.60352H354.392L351.419 18.1416C350.958 19.3721 350.227 19.9873 349.224 19.9873L348.985 19.9668L348.513 19.8779V18.8525L348.855 18.8799C349.284 18.8799 349.616 18.7933 349.853 18.6201C350.095 18.4469 350.293 18.1302 350.448 17.6699L350.728 16.918L348.09 9.60352H349.47L351.316 15.1475ZM362.496 15.2568L363.918 9.60352H365.182L363.029 17H362.004L360.206 11.3945L358.456 17H357.431L355.284 9.60352H356.542L357.998 15.1406L359.721 9.60352H360.739L362.496 15.2568ZM371.461 17C371.388 16.8542 371.329 16.5944 371.283 16.2207C370.695 16.8314 369.993 17.1367 369.178 17.1367C368.448 17.1367 367.849 16.9316 367.38 16.5215C366.915 16.1068 366.683 15.5827 366.683 14.9492C366.683 14.179 366.974 13.582 367.558 13.1582C368.145 12.7298 368.97 12.5156 370.032 12.5156H371.263V11.9346C371.263 11.4925 371.13 11.1416 370.866 10.8818C370.602 10.6175 370.212 10.4854 369.697 10.4854C369.246 10.4854 368.868 10.5993 368.562 10.8271C368.257 11.055 368.104 11.3307 368.104 11.6543H366.833C366.833 11.2852 366.963 10.9297 367.223 10.5879C367.487 10.2415 367.842 9.9681 368.289 9.76758C368.74 9.56706 369.235 9.4668 369.772 9.4668C370.625 9.4668 371.292 9.68099 371.775 10.1094C372.258 10.5332 372.509 11.1188 372.527 11.8662V15.2705C372.527 15.9495 372.614 16.4896 372.787 16.8906V17H371.461ZM369.362 16.0361C369.759 16.0361 370.135 15.9336 370.49 15.7285C370.846 15.5234 371.103 15.2568 371.263 14.9287V13.4111H370.271C368.722 13.4111 367.947 13.8646 367.947 14.7715C367.947 15.168 368.079 15.4779 368.344 15.7012C368.608 15.9245 368.947 16.0361 369.362 16.0361ZM376.646 7.8125V9.60352H378.026V10.5811H376.646V15.168C376.646 15.4642 376.707 15.6875 376.83 15.8379C376.953 15.9837 377.163 16.0566 377.459 16.0566C377.605 16.0566 377.805 16.0293 378.061 15.9746V17C377.728 17.0911 377.404 17.1367 377.09 17.1367C376.525 17.1367 376.099 16.9658 375.812 16.624C375.524 16.2822 375.381 15.7969 375.381 15.168V10.5811H374.034V9.60352H375.381V7.8125H376.646ZM381.126 9.60352L381.167 10.5332C381.732 9.82227 382.47 9.4668 383.382 9.4668C384.945 9.4668 385.733 10.3486 385.747 12.1123V17H384.483V12.1055C384.478 11.5723 384.355 11.1781 384.113 10.9229C383.876 10.6676 383.505 10.54 382.999 10.54C382.589 10.54 382.229 10.6494 381.919 10.8682C381.609 11.0869 381.368 11.374 381.194 11.7295V17H379.93V9.60352H381.126ZM387.739 13.2334C387.739 12.5088 387.881 11.8571 388.163 11.2783C388.45 10.6995 388.847 10.2529 389.353 9.93848C389.863 9.62402 390.444 9.4668 391.096 9.4668C392.103 9.4668 392.916 9.81543 393.536 10.5127C394.161 11.21 394.473 12.1374 394.473 13.2949V13.3838C394.473 14.1038 394.334 14.751 394.056 15.3252C393.782 15.8949 393.388 16.3392 392.873 16.6582C392.363 16.9772 391.775 17.1367 391.11 17.1367C390.107 17.1367 389.293 16.7881 388.669 16.0908C388.049 15.3936 387.739 14.4707 387.739 13.3223V13.2334ZM389.011 13.3838C389.011 14.2041 389.2 14.8626 389.578 15.3594C389.961 15.8561 390.472 16.1045 391.11 16.1045C391.752 16.1045 392.263 15.8538 392.641 15.3525C393.019 14.8467 393.208 14.1403 393.208 13.2334C393.208 12.4222 393.014 11.766 392.627 11.2646C392.244 10.7588 391.734 10.5059 391.096 10.5059C390.472 10.5059 389.968 10.7542 389.585 11.251C389.202 11.7477 389.011 12.4587 389.011 13.3838ZM400.785 15.0381C400.785 14.6963 400.656 14.432 400.396 14.2451C400.141 14.0537 399.692 13.8896 399.049 13.7529C398.411 13.6162 397.903 13.4521 397.525 13.2607C397.151 13.0693 396.873 12.8415 396.691 12.5771C396.513 12.3128 396.424 11.9984 396.424 11.6338C396.424 11.0277 396.679 10.515 397.19 10.0957C397.705 9.67643 398.361 9.4668 399.158 9.4668C399.997 9.4668 400.676 9.68327 401.196 10.1162C401.72 10.5492 401.982 11.1029 401.982 11.7773H400.71C400.71 11.431 400.562 11.1325 400.266 10.8818C399.974 10.6312 399.605 10.5059 399.158 10.5059C398.698 10.5059 398.338 10.6061 398.078 10.8066C397.819 11.0072 397.689 11.2692 397.689 11.5928C397.689 11.8981 397.809 12.1283 398.051 12.2832C398.293 12.4382 398.728 12.5863 399.357 12.7275C399.99 12.8688 400.503 13.0374 400.895 13.2334C401.287 13.4294 401.576 13.6663 401.763 13.9443C401.954 14.2178 402.05 14.5527 402.05 14.9492C402.05 15.61 401.786 16.141 401.257 16.542C400.728 16.9385 400.043 17.1367 399.199 17.1367C398.607 17.1367 398.083 17.0319 397.627 16.8223C397.171 16.6126 396.814 16.321 396.554 15.9473C396.299 15.569 396.171 15.1611 396.171 14.7236H397.436C397.459 15.1475 397.627 15.4847 397.942 15.7354C398.261 15.9814 398.68 16.1045 399.199 16.1045C399.678 16.1045 400.061 16.0088 400.348 15.8174C400.64 15.6214 400.785 15.3617 400.785 15.0381ZM399.986 6.5H401.517L399.685 8.50977H398.666L399.986 6.5ZM407.084 16.1045C407.535 16.1045 407.93 15.9678 408.267 15.6943C408.604 15.4209 408.791 15.0791 408.827 14.6689H410.024C410.001 15.0928 409.855 15.4961 409.586 15.8789C409.317 16.2617 408.957 16.5671 408.506 16.7949C408.06 17.0228 407.586 17.1367 407.084 17.1367C406.077 17.1367 405.275 16.8018 404.678 16.1318C404.086 15.4574 403.789 14.5368 403.789 13.3701V13.1582C403.789 12.4382 403.922 11.7979 404.186 11.2373C404.45 10.6768 404.828 10.2415 405.321 9.93164C405.817 9.62174 406.403 9.4668 407.077 9.4668C407.907 9.4668 408.595 9.71517 409.142 10.2119C409.693 10.7087 409.987 11.3535 410.024 12.1465H408.827C408.791 11.668 408.609 11.276 408.281 10.9707C407.957 10.6608 407.556 10.5059 407.077 10.5059C406.435 10.5059 405.936 10.7383 405.58 11.2031C405.229 11.6634 405.054 12.3311 405.054 13.2061V13.4453C405.054 14.2975 405.229 14.9538 405.58 15.4141C405.931 15.8743 406.433 16.1045 407.084 16.1045ZM413.24 17H411.975V9.60352H413.24V17ZM411.872 7.6416C411.872 7.43652 411.934 7.26335 412.057 7.12207C412.185 6.98079 412.371 6.91016 412.618 6.91016C412.864 6.91016 413.051 6.98079 413.178 7.12207C413.306 7.26335 413.37 7.43652 413.37 7.6416C413.37 7.84668 413.306 8.01758 413.178 8.1543C413.051 8.29102 412.864 8.35938 412.618 8.35938C412.371 8.35938 412.185 8.29102 412.057 8.1543C411.934 8.01758 411.872 7.84668 411.872 7.6416ZM415.717 16.3369C415.717 16.1182 415.781 15.9359 415.909 15.79C416.041 15.6442 416.237 15.5713 416.497 15.5713C416.756 15.5713 416.952 15.6442 417.084 15.79C417.221 15.9359 417.29 16.1182 417.29 16.3369C417.29 16.5465 417.221 16.722 417.084 16.8633C416.952 17.0046 416.756 17.0752 416.497 17.0752C416.237 17.0752 416.041 17.0046 415.909 16.8633C415.781 16.722 415.717 16.5465 415.717 16.3369Z" fill="#2196F3"/>
<path d="M195.572 18.3672H265.415V19.0508H195.572V18.3672ZM277.024 18.3672H418.417V19.0508H277.024V18.3672Z" fill="#2196F3"/>
</svg>
